<mxfile host="app.diagrams.net" modified="2024-01-19T20:28:57.489Z" agent="Mozilla/5.0 (Windows NT 10.0; Win64; x64) AppleWebKit/537.36 (KHTML, like Gecko) Chrome/119.0.0.0 Safari/537.36 OPR/105.0.0.0" etag="rz7ZdpPGWxn3-tE_5ImI" version="22.1.18" type="device">
  <diagram name="Page-1" id="jXdCkAU2Xb5sGQI3Edg2">
    <mxGraphModel dx="1838" dy="1251" grid="0" gridSize="10" guides="1" tooltips="1" connect="1" arrows="1" fold="1" page="0" pageScale="1" pageWidth="850" pageHeight="1100" math="0" shadow="0">
      <root>
        <mxCell id="0" />
        <mxCell id="1" parent="0" />
        <mxCell id="Sm1Ek9W-fdh5q3tvaJtg-2" value="Specializări" style="rounded=1;whiteSpace=wrap;html=1;fontSize=16;" vertex="1" parent="1">
          <mxGeometry x="105" y="-77" width="120" height="45" as="geometry" />
        </mxCell>
        <mxCell id="Sm1Ek9W-fdh5q3tvaJtg-8" value="Materii" style="rounded=1;whiteSpace=wrap;html=1;fontSize=16;" vertex="1" parent="1">
          <mxGeometry x="-25" y="324" width="120" height="45" as="geometry" />
        </mxCell>
        <mxCell id="Sm1Ek9W-fdh5q3tvaJtg-9" value="Studenți" style="rounded=1;whiteSpace=wrap;html=1;fontSize=16;" vertex="1" parent="1">
          <mxGeometry x="-22" y="60" width="120" height="45" as="geometry" />
        </mxCell>
        <mxCell id="Sm1Ek9W-fdh5q3tvaJtg-10" value="Prezențe" style="rounded=1;whiteSpace=wrap;html=1;fontSize=16;" vertex="1" parent="1">
          <mxGeometry x="231" y="60" width="120" height="45" as="geometry" />
        </mxCell>
        <mxCell id="Sm1Ek9W-fdh5q3tvaJtg-11" value="Examene" style="rounded=1;whiteSpace=wrap;html=1;fontSize=16;" vertex="1" parent="1">
          <mxGeometry x="105" y="422.5" width="120" height="45" as="geometry" />
        </mxCell>
        <mxCell id="Sm1Ek9W-fdh5q3tvaJtg-12" value="Note" style="rounded=1;whiteSpace=wrap;html=1;fontSize=16;" vertex="1" parent="1">
          <mxGeometry x="231" y="321.5" width="120" height="45" as="geometry" />
        </mxCell>
        <mxCell id="Sm1Ek9W-fdh5q3tvaJtg-13" value="" style="fontSize=12;html=1;endArrow=ERoneToMany;rounded=0;startSize=8;endSize=8;entryX=1;entryY=0;entryDx=0;entryDy=0;exitX=0.5;exitY=1;exitDx=0;exitDy=0;" edge="1" parent="1" source="Sm1Ek9W-fdh5q3tvaJtg-2" target="Sm1Ek9W-fdh5q3tvaJtg-9">
          <mxGeometry width="100" height="100" relative="1" as="geometry">
            <mxPoint x="150" y="250" as="sourcePoint" />
            <mxPoint x="250" y="150" as="targetPoint" />
          </mxGeometry>
        </mxCell>
        <mxCell id="Sm1Ek9W-fdh5q3tvaJtg-15" value="" style="edgeStyle=entityRelationEdgeStyle;fontSize=12;html=1;endArrow=ERoneToMany;rounded=0;startSize=8;endSize=8;curved=1;exitX=1;exitY=0.5;exitDx=0;exitDy=0;entryX=0;entryY=0.5;entryDx=0;entryDy=0;" edge="1" parent="1" source="Sm1Ek9W-fdh5q3tvaJtg-9" target="Sm1Ek9W-fdh5q3tvaJtg-10">
          <mxGeometry width="100" height="100" relative="1" as="geometry">
            <mxPoint x="150" y="251" as="sourcePoint" />
            <mxPoint x="250" y="151" as="targetPoint" />
          </mxGeometry>
        </mxCell>
        <mxCell id="Sm1Ek9W-fdh5q3tvaJtg-16" value="" style="fontSize=12;html=1;endArrow=ERoneToMany;rounded=0;startSize=8;endSize=8;exitX=1;exitY=0.75;exitDx=0;exitDy=0;entryX=0;entryY=0;entryDx=0;entryDy=0;" edge="1" parent="1" source="Sm1Ek9W-fdh5q3tvaJtg-9" target="Sm1Ek9W-fdh5q3tvaJtg-12">
          <mxGeometry width="100" height="100" relative="1" as="geometry">
            <mxPoint x="109" y="181" as="sourcePoint" />
            <mxPoint x="250" y="151" as="targetPoint" />
          </mxGeometry>
        </mxCell>
        <mxCell id="Sm1Ek9W-fdh5q3tvaJtg-17" value="" style="fontSize=12;html=1;endArrow=ERoneToMany;rounded=0;startSize=8;endSize=8;exitX=1;exitY=0.25;exitDx=0;exitDy=0;entryX=0;entryY=1;entryDx=0;entryDy=0;" edge="1" parent="1" source="Sm1Ek9W-fdh5q3tvaJtg-8" target="Sm1Ek9W-fdh5q3tvaJtg-10">
          <mxGeometry width="100" height="100" relative="1" as="geometry">
            <mxPoint x="150" y="251" as="sourcePoint" />
            <mxPoint x="250" y="151" as="targetPoint" />
          </mxGeometry>
        </mxCell>
        <mxCell id="Sm1Ek9W-fdh5q3tvaJtg-18" value="" style="fontSize=12;html=1;endArrow=ERmandOne;startArrow=ERmandOne;rounded=0;startSize=8;endSize=8;exitX=1;exitY=1;exitDx=0;exitDy=0;entryX=0.25;entryY=0;entryDx=0;entryDy=0;" edge="1" parent="1" source="Sm1Ek9W-fdh5q3tvaJtg-8" target="Sm1Ek9W-fdh5q3tvaJtg-11">
          <mxGeometry width="100" height="100" relative="1" as="geometry">
            <mxPoint x="150" y="340.5" as="sourcePoint" />
            <mxPoint x="250" y="240.5" as="targetPoint" />
          </mxGeometry>
        </mxCell>
        <mxCell id="Sm1Ek9W-fdh5q3tvaJtg-19" value="" style="fontSize=12;html=1;endArrow=ERoneToMany;rounded=0;startSize=8;endSize=8;exitX=0.75;exitY=0;exitDx=0;exitDy=0;entryX=0;entryY=1;entryDx=0;entryDy=0;" edge="1" parent="1" source="Sm1Ek9W-fdh5q3tvaJtg-11" target="Sm1Ek9W-fdh5q3tvaJtg-12">
          <mxGeometry width="100" height="100" relative="1" as="geometry">
            <mxPoint x="151" y="340.5" as="sourcePoint" />
            <mxPoint x="251" y="240.5" as="targetPoint" />
          </mxGeometry>
        </mxCell>
        <mxCell id="Sm1Ek9W-fdh5q3tvaJtg-20" value="specializare_id" style="ellipse;whiteSpace=wrap;html=1;fontSize=12;" vertex="1" parent="1">
          <mxGeometry x="-13" y="-111" width="91" height="37" as="geometry" />
        </mxCell>
        <mxCell id="Sm1Ek9W-fdh5q3tvaJtg-21" value="nume_specializare" style="ellipse;whiteSpace=wrap;html=1;fontSize=12;" vertex="1" parent="1">
          <mxGeometry x="55" y="-150" width="110.5" height="39" as="geometry" />
        </mxCell>
        <mxCell id="Sm1Ek9W-fdh5q3tvaJtg-22" value="durata_studii" style="ellipse;whiteSpace=wrap;html=1;fontSize=12;" vertex="1" parent="1">
          <mxGeometry x="173" y="-150" width="87" height="37" as="geometry" />
        </mxCell>
        <mxCell id="Sm1Ek9W-fdh5q3tvaJtg-23" value="tip_specializare" style="ellipse;whiteSpace=wrap;html=1;fontSize=12;" vertex="1" parent="1">
          <mxGeometry x="248" y="-111" width="103" height="38" as="geometry" />
        </mxCell>
        <mxCell id="Sm1Ek9W-fdh5q3tvaJtg-24" value="" style="endArrow=none;html=1;rounded=0;fontSize=12;startSize=8;endSize=8;curved=1;exitX=1;exitY=1;exitDx=0;exitDy=0;entryX=0;entryY=0.25;entryDx=0;entryDy=0;" edge="1" parent="1" source="Sm1Ek9W-fdh5q3tvaJtg-20" target="Sm1Ek9W-fdh5q3tvaJtg-2">
          <mxGeometry width="50" height="50" relative="1" as="geometry">
            <mxPoint x="172" y="226" as="sourcePoint" />
            <mxPoint x="222" y="176" as="targetPoint" />
          </mxGeometry>
        </mxCell>
        <mxCell id="Sm1Ek9W-fdh5q3tvaJtg-25" value="" style="endArrow=none;html=1;rounded=0;fontSize=12;startSize=8;endSize=8;curved=1;entryX=0.5;entryY=1;entryDx=0;entryDy=0;exitX=0.5;exitY=0;exitDx=0;exitDy=0;" edge="1" parent="1" source="Sm1Ek9W-fdh5q3tvaJtg-2" target="Sm1Ek9W-fdh5q3tvaJtg-21">
          <mxGeometry width="50" height="50" relative="1" as="geometry">
            <mxPoint x="172" y="226" as="sourcePoint" />
            <mxPoint x="222" y="176" as="targetPoint" />
          </mxGeometry>
        </mxCell>
        <mxCell id="Sm1Ek9W-fdh5q3tvaJtg-26" value="" style="endArrow=none;html=1;rounded=0;fontSize=12;startSize=8;endSize=8;curved=1;entryX=0.5;entryY=1;entryDx=0;entryDy=0;exitX=0.5;exitY=0;exitDx=0;exitDy=0;" edge="1" parent="1" source="Sm1Ek9W-fdh5q3tvaJtg-2" target="Sm1Ek9W-fdh5q3tvaJtg-22">
          <mxGeometry width="50" height="50" relative="1" as="geometry">
            <mxPoint x="172" y="226" as="sourcePoint" />
            <mxPoint x="222" y="176" as="targetPoint" />
          </mxGeometry>
        </mxCell>
        <mxCell id="Sm1Ek9W-fdh5q3tvaJtg-27" value="" style="endArrow=none;html=1;rounded=0;fontSize=12;startSize=8;endSize=8;curved=1;entryX=0;entryY=1;entryDx=0;entryDy=0;exitX=1;exitY=0.25;exitDx=0;exitDy=0;" edge="1" parent="1" source="Sm1Ek9W-fdh5q3tvaJtg-2" target="Sm1Ek9W-fdh5q3tvaJtg-23">
          <mxGeometry width="50" height="50" relative="1" as="geometry">
            <mxPoint x="172" y="226" as="sourcePoint" />
            <mxPoint x="222" y="176" as="targetPoint" />
          </mxGeometry>
        </mxCell>
        <mxCell id="Sm1Ek9W-fdh5q3tvaJtg-28" value="student_id" style="ellipse;whiteSpace=wrap;html=1;fontSize=12;" vertex="1" parent="1">
          <mxGeometry x="-185.5" y="-69" width="77" height="37" as="geometry" />
        </mxCell>
        <mxCell id="Sm1Ek9W-fdh5q3tvaJtg-29" value="specializare_id" style="ellipse;whiteSpace=wrap;html=1;fontSize=12;" vertex="1" parent="1">
          <mxGeometry x="-193" y="-19" width="92" height="37" as="geometry" />
        </mxCell>
        <mxCell id="Sm1Ek9W-fdh5q3tvaJtg-30" value="nume" style="ellipse;whiteSpace=wrap;html=1;fontSize=12;" vertex="1" parent="1">
          <mxGeometry x="-174.25" y="27" width="54.5" height="37" as="geometry" />
        </mxCell>
        <mxCell id="Sm1Ek9W-fdh5q3tvaJtg-31" value="prenume" style="ellipse;whiteSpace=wrap;html=1;fontSize=12;" vertex="1" parent="1">
          <mxGeometry x="-181.5" y="73" width="69" height="37" as="geometry" />
        </mxCell>
        <mxCell id="Sm1Ek9W-fdh5q3tvaJtg-32" value="adresă" style="ellipse;whiteSpace=wrap;html=1;fontSize=12;" vertex="1" parent="1">
          <mxGeometry x="-181.5" y="119" width="69" height="37" as="geometry" />
        </mxCell>
        <mxCell id="Sm1Ek9W-fdh5q3tvaJtg-33" value="telefon" style="ellipse;whiteSpace=wrap;html=1;fontSize=12;" vertex="1" parent="1">
          <mxGeometry x="-181.5" y="165" width="69" height="37" as="geometry" />
        </mxCell>
        <mxCell id="Sm1Ek9W-fdh5q3tvaJtg-35" value="" style="endArrow=none;html=1;rounded=0;fontSize=12;startSize=8;endSize=8;curved=1;entryX=1;entryY=1;entryDx=0;entryDy=0;exitX=0;exitY=0.5;exitDx=0;exitDy=0;" edge="1" parent="1" source="Sm1Ek9W-fdh5q3tvaJtg-9" target="Sm1Ek9W-fdh5q3tvaJtg-28">
          <mxGeometry width="50" height="50" relative="1" as="geometry">
            <mxPoint x="93" y="229" as="sourcePoint" />
            <mxPoint x="143" y="179" as="targetPoint" />
          </mxGeometry>
        </mxCell>
        <mxCell id="Sm1Ek9W-fdh5q3tvaJtg-36" value="" style="endArrow=none;html=1;rounded=0;fontSize=12;startSize=8;endSize=8;curved=1;exitX=1;exitY=1;exitDx=0;exitDy=0;entryX=0;entryY=0.5;entryDx=0;entryDy=0;" edge="1" parent="1" source="Sm1Ek9W-fdh5q3tvaJtg-29" target="Sm1Ek9W-fdh5q3tvaJtg-9">
          <mxGeometry width="50" height="50" relative="1" as="geometry">
            <mxPoint x="93" y="229" as="sourcePoint" />
            <mxPoint x="143" y="179" as="targetPoint" />
          </mxGeometry>
        </mxCell>
        <mxCell id="Sm1Ek9W-fdh5q3tvaJtg-37" value="" style="endArrow=none;html=1;rounded=0;fontSize=12;startSize=8;endSize=8;curved=1;entryX=1;entryY=0.5;entryDx=0;entryDy=0;exitX=0;exitY=0.5;exitDx=0;exitDy=0;" edge="1" parent="1" source="Sm1Ek9W-fdh5q3tvaJtg-9" target="Sm1Ek9W-fdh5q3tvaJtg-30">
          <mxGeometry width="50" height="50" relative="1" as="geometry">
            <mxPoint x="93" y="229" as="sourcePoint" />
            <mxPoint x="143" y="179" as="targetPoint" />
          </mxGeometry>
        </mxCell>
        <mxCell id="Sm1Ek9W-fdh5q3tvaJtg-38" value="" style="endArrow=none;html=1;rounded=0;fontSize=12;startSize=8;endSize=8;curved=1;entryX=1;entryY=0.5;entryDx=0;entryDy=0;exitX=0;exitY=0.5;exitDx=0;exitDy=0;" edge="1" parent="1" source="Sm1Ek9W-fdh5q3tvaJtg-9" target="Sm1Ek9W-fdh5q3tvaJtg-31">
          <mxGeometry width="50" height="50" relative="1" as="geometry">
            <mxPoint x="93" y="229" as="sourcePoint" />
            <mxPoint x="143" y="179" as="targetPoint" />
          </mxGeometry>
        </mxCell>
        <mxCell id="Sm1Ek9W-fdh5q3tvaJtg-39" value="" style="endArrow=none;html=1;rounded=0;fontSize=12;startSize=8;endSize=8;curved=1;entryX=1;entryY=0.5;entryDx=0;entryDy=0;exitX=0;exitY=0.5;exitDx=0;exitDy=0;" edge="1" parent="1" source="Sm1Ek9W-fdh5q3tvaJtg-9" target="Sm1Ek9W-fdh5q3tvaJtg-32">
          <mxGeometry width="50" height="50" relative="1" as="geometry">
            <mxPoint x="93" y="229" as="sourcePoint" />
            <mxPoint x="143" y="179" as="targetPoint" />
          </mxGeometry>
        </mxCell>
        <mxCell id="Sm1Ek9W-fdh5q3tvaJtg-40" value="" style="endArrow=none;html=1;rounded=0;fontSize=12;startSize=8;endSize=8;curved=1;entryX=1;entryY=0.5;entryDx=0;entryDy=0;exitX=0;exitY=0.5;exitDx=0;exitDy=0;" edge="1" parent="1" source="Sm1Ek9W-fdh5q3tvaJtg-9" target="Sm1Ek9W-fdh5q3tvaJtg-33">
          <mxGeometry width="50" height="50" relative="1" as="geometry">
            <mxPoint x="93" y="229" as="sourcePoint" />
            <mxPoint x="143" y="179" as="targetPoint" />
          </mxGeometry>
        </mxCell>
        <mxCell id="Sm1Ek9W-fdh5q3tvaJtg-41" value="materie_id" style="ellipse;whiteSpace=wrap;html=1;fontSize=12;" vertex="1" parent="1">
          <mxGeometry x="-181.5" y="232" width="69" height="37" as="geometry" />
        </mxCell>
        <mxCell id="Sm1Ek9W-fdh5q3tvaJtg-42" value="specializare_id" style="ellipse;whiteSpace=wrap;html=1;fontSize=12;" vertex="1" parent="1">
          <mxGeometry x="-190" y="280" width="86" height="37" as="geometry" />
        </mxCell>
        <mxCell id="Sm1Ek9W-fdh5q3tvaJtg-43" value="nume_materie" style="ellipse;whiteSpace=wrap;html=1;fontSize=12;" vertex="1" parent="1">
          <mxGeometry x="-190" y="328" width="86" height="37" as="geometry" />
        </mxCell>
        <mxCell id="Sm1Ek9W-fdh5q3tvaJtg-44" value="profesor" style="ellipse;whiteSpace=wrap;html=1;fontSize=12;" vertex="1" parent="1">
          <mxGeometry x="-190" y="376" width="86" height="37" as="geometry" />
        </mxCell>
        <mxCell id="Sm1Ek9W-fdh5q3tvaJtg-45" value="credite" style="ellipse;whiteSpace=wrap;html=1;fontSize=12;" vertex="1" parent="1">
          <mxGeometry x="-190" y="424" width="86" height="37" as="geometry" />
        </mxCell>
        <mxCell id="Sm1Ek9W-fdh5q3tvaJtg-46" value="" style="endArrow=none;html=1;rounded=0;fontSize=12;startSize=8;endSize=8;curved=1;exitX=1;exitY=1;exitDx=0;exitDy=0;entryX=0;entryY=0.5;entryDx=0;entryDy=0;" edge="1" parent="1" source="Sm1Ek9W-fdh5q3tvaJtg-41" target="Sm1Ek9W-fdh5q3tvaJtg-8">
          <mxGeometry width="50" height="50" relative="1" as="geometry">
            <mxPoint x="93" y="228" as="sourcePoint" />
            <mxPoint x="143" y="178" as="targetPoint" />
          </mxGeometry>
        </mxCell>
        <mxCell id="Sm1Ek9W-fdh5q3tvaJtg-47" value="" style="endArrow=none;html=1;rounded=0;fontSize=12;startSize=8;endSize=8;curved=1;exitX=1;exitY=0.5;exitDx=0;exitDy=0;entryX=0;entryY=0.5;entryDx=0;entryDy=0;" edge="1" parent="1" source="Sm1Ek9W-fdh5q3tvaJtg-42" target="Sm1Ek9W-fdh5q3tvaJtg-8">
          <mxGeometry width="50" height="50" relative="1" as="geometry">
            <mxPoint x="93" y="228" as="sourcePoint" />
            <mxPoint x="143" y="178" as="targetPoint" />
          </mxGeometry>
        </mxCell>
        <mxCell id="Sm1Ek9W-fdh5q3tvaJtg-48" value="" style="endArrow=none;html=1;rounded=0;fontSize=12;startSize=8;endSize=8;curved=1;exitX=1;exitY=0.5;exitDx=0;exitDy=0;entryX=0;entryY=0.5;entryDx=0;entryDy=0;" edge="1" parent="1" source="Sm1Ek9W-fdh5q3tvaJtg-43" target="Sm1Ek9W-fdh5q3tvaJtg-8">
          <mxGeometry width="50" height="50" relative="1" as="geometry">
            <mxPoint x="93" y="228" as="sourcePoint" />
            <mxPoint x="143" y="178" as="targetPoint" />
          </mxGeometry>
        </mxCell>
        <mxCell id="Sm1Ek9W-fdh5q3tvaJtg-49" value="" style="endArrow=none;html=1;rounded=0;fontSize=12;startSize=8;endSize=8;curved=1;exitX=1;exitY=0.5;exitDx=0;exitDy=0;entryX=0;entryY=0.5;entryDx=0;entryDy=0;" edge="1" parent="1" source="Sm1Ek9W-fdh5q3tvaJtg-44" target="Sm1Ek9W-fdh5q3tvaJtg-8">
          <mxGeometry width="50" height="50" relative="1" as="geometry">
            <mxPoint x="93" y="228" as="sourcePoint" />
            <mxPoint x="143" y="178" as="targetPoint" />
          </mxGeometry>
        </mxCell>
        <mxCell id="Sm1Ek9W-fdh5q3tvaJtg-50" value="" style="endArrow=none;html=1;rounded=0;fontSize=12;startSize=8;endSize=8;curved=1;exitX=1;exitY=0;exitDx=0;exitDy=0;entryX=0;entryY=0.5;entryDx=0;entryDy=0;" edge="1" parent="1" source="Sm1Ek9W-fdh5q3tvaJtg-45" target="Sm1Ek9W-fdh5q3tvaJtg-8">
          <mxGeometry width="50" height="50" relative="1" as="geometry">
            <mxPoint x="93" y="228" as="sourcePoint" />
            <mxPoint x="143" y="178" as="targetPoint" />
          </mxGeometry>
        </mxCell>
        <mxCell id="Sm1Ek9W-fdh5q3tvaJtg-52" value="prezenta_id" style="ellipse;whiteSpace=wrap;html=1;fontSize=12;" vertex="1" parent="1">
          <mxGeometry x="406.5" y="-8.5" width="86" height="38" as="geometry" />
        </mxCell>
        <mxCell id="Sm1Ek9W-fdh5q3tvaJtg-53" value="student_id" style="ellipse;whiteSpace=wrap;html=1;fontSize=12;" vertex="1" parent="1">
          <mxGeometry x="413.5" y="39.5" width="72" height="38" as="geometry" />
        </mxCell>
        <mxCell id="Sm1Ek9W-fdh5q3tvaJtg-54" value="materie_id" style="ellipse;whiteSpace=wrap;html=1;fontSize=12;" vertex="1" parent="1">
          <mxGeometry x="413.5" y="87.5" width="72" height="38" as="geometry" />
        </mxCell>
        <mxCell id="Sm1Ek9W-fdh5q3tvaJtg-55" value="numar_prezente" style="ellipse;whiteSpace=wrap;html=1;fontSize=12;" vertex="1" parent="1">
          <mxGeometry x="402" y="135.5" width="95" height="38" as="geometry" />
        </mxCell>
        <mxCell id="Sm1Ek9W-fdh5q3tvaJtg-56" value="" style="endArrow=none;html=1;rounded=0;fontSize=12;startSize=8;endSize=8;curved=1;entryX=0;entryY=1;entryDx=0;entryDy=0;exitX=1;exitY=0.5;exitDx=0;exitDy=0;" edge="1" parent="1" source="Sm1Ek9W-fdh5q3tvaJtg-10" target="Sm1Ek9W-fdh5q3tvaJtg-52">
          <mxGeometry width="50" height="50" relative="1" as="geometry">
            <mxPoint x="382" y="222" as="sourcePoint" />
            <mxPoint x="432" y="172" as="targetPoint" />
          </mxGeometry>
        </mxCell>
        <mxCell id="Sm1Ek9W-fdh5q3tvaJtg-57" value="" style="endArrow=none;html=1;rounded=0;fontSize=12;startSize=8;endSize=8;curved=1;entryX=0;entryY=0.5;entryDx=0;entryDy=0;exitX=1;exitY=0.5;exitDx=0;exitDy=0;" edge="1" parent="1" source="Sm1Ek9W-fdh5q3tvaJtg-10" target="Sm1Ek9W-fdh5q3tvaJtg-53">
          <mxGeometry width="50" height="50" relative="1" as="geometry">
            <mxPoint x="382" y="222" as="sourcePoint" />
            <mxPoint x="432" y="172" as="targetPoint" />
          </mxGeometry>
        </mxCell>
        <mxCell id="Sm1Ek9W-fdh5q3tvaJtg-58" value="" style="endArrow=none;html=1;rounded=0;fontSize=12;startSize=8;endSize=8;curved=1;entryX=0;entryY=0.5;entryDx=0;entryDy=0;exitX=1;exitY=0.5;exitDx=0;exitDy=0;" edge="1" parent="1" source="Sm1Ek9W-fdh5q3tvaJtg-10" target="Sm1Ek9W-fdh5q3tvaJtg-54">
          <mxGeometry width="50" height="50" relative="1" as="geometry">
            <mxPoint x="382" y="222" as="sourcePoint" />
            <mxPoint x="432" y="172" as="targetPoint" />
          </mxGeometry>
        </mxCell>
        <mxCell id="Sm1Ek9W-fdh5q3tvaJtg-59" value="" style="endArrow=none;html=1;rounded=0;fontSize=12;startSize=8;endSize=8;curved=1;entryX=0;entryY=0;entryDx=0;entryDy=0;exitX=1;exitY=0.5;exitDx=0;exitDy=0;" edge="1" parent="1" source="Sm1Ek9W-fdh5q3tvaJtg-10" target="Sm1Ek9W-fdh5q3tvaJtg-55">
          <mxGeometry width="50" height="50" relative="1" as="geometry">
            <mxPoint x="382" y="222" as="sourcePoint" />
            <mxPoint x="432" y="172" as="targetPoint" />
          </mxGeometry>
        </mxCell>
        <mxCell id="Sm1Ek9W-fdh5q3tvaJtg-60" value="nota_id" style="ellipse;whiteSpace=wrap;html=1;fontSize=12;" vertex="1" parent="1">
          <mxGeometry x="415" y="252" width="61.5" height="38" as="geometry" />
        </mxCell>
        <mxCell id="Sm1Ek9W-fdh5q3tvaJtg-61" value="student_id" style="ellipse;whiteSpace=wrap;html=1;fontSize=12;" vertex="1" parent="1">
          <mxGeometry x="409" y="302" width="73.5" height="38" as="geometry" />
        </mxCell>
        <mxCell id="Sm1Ek9W-fdh5q3tvaJtg-62" value="examen_id" style="ellipse;whiteSpace=wrap;html=1;fontSize=12;" vertex="1" parent="1">
          <mxGeometry x="409" y="350" width="73.5" height="38" as="geometry" />
        </mxCell>
        <mxCell id="Sm1Ek9W-fdh5q3tvaJtg-63" value="nota" style="ellipse;whiteSpace=wrap;html=1;fontSize=12;" vertex="1" parent="1">
          <mxGeometry x="409" y="398" width="73.5" height="38" as="geometry" />
        </mxCell>
        <mxCell id="Sm1Ek9W-fdh5q3tvaJtg-64" value="" style="endArrow=none;html=1;rounded=0;fontSize=12;startSize=8;endSize=8;curved=1;exitX=1;exitY=0.5;exitDx=0;exitDy=0;entryX=0;entryY=1;entryDx=0;entryDy=0;" edge="1" parent="1" source="Sm1Ek9W-fdh5q3tvaJtg-12" target="Sm1Ek9W-fdh5q3tvaJtg-60">
          <mxGeometry width="50" height="50" relative="1" as="geometry">
            <mxPoint x="382" y="222" as="sourcePoint" />
            <mxPoint x="432" y="172" as="targetPoint" />
          </mxGeometry>
        </mxCell>
        <mxCell id="Sm1Ek9W-fdh5q3tvaJtg-65" value="" style="endArrow=none;html=1;rounded=0;fontSize=12;startSize=8;endSize=8;curved=1;exitX=1;exitY=0.5;exitDx=0;exitDy=0;entryX=0;entryY=0.5;entryDx=0;entryDy=0;" edge="1" parent="1" source="Sm1Ek9W-fdh5q3tvaJtg-12" target="Sm1Ek9W-fdh5q3tvaJtg-61">
          <mxGeometry width="50" height="50" relative="1" as="geometry">
            <mxPoint x="382" y="222" as="sourcePoint" />
            <mxPoint x="432" y="172" as="targetPoint" />
          </mxGeometry>
        </mxCell>
        <mxCell id="Sm1Ek9W-fdh5q3tvaJtg-66" value="" style="endArrow=none;html=1;rounded=0;fontSize=12;startSize=8;endSize=8;curved=1;exitX=1;exitY=0.5;exitDx=0;exitDy=0;entryX=0;entryY=0.5;entryDx=0;entryDy=0;" edge="1" parent="1" source="Sm1Ek9W-fdh5q3tvaJtg-12" target="Sm1Ek9W-fdh5q3tvaJtg-62">
          <mxGeometry width="50" height="50" relative="1" as="geometry">
            <mxPoint x="382" y="222" as="sourcePoint" />
            <mxPoint x="432" y="172" as="targetPoint" />
          </mxGeometry>
        </mxCell>
        <mxCell id="Sm1Ek9W-fdh5q3tvaJtg-67" value="" style="endArrow=none;html=1;rounded=0;fontSize=12;startSize=8;endSize=8;curved=1;exitX=1;exitY=0.5;exitDx=0;exitDy=0;entryX=0;entryY=0;entryDx=0;entryDy=0;" edge="1" parent="1" source="Sm1Ek9W-fdh5q3tvaJtg-12" target="Sm1Ek9W-fdh5q3tvaJtg-63">
          <mxGeometry width="50" height="50" relative="1" as="geometry">
            <mxPoint x="382" y="222" as="sourcePoint" />
            <mxPoint x="432" y="172" as="targetPoint" />
          </mxGeometry>
        </mxCell>
        <mxCell id="Sm1Ek9W-fdh5q3tvaJtg-68" value="examen_id" style="ellipse;whiteSpace=wrap;html=1;fontSize=12;" vertex="1" parent="1">
          <mxGeometry x="13" y="487" width="73.5" height="38" as="geometry" />
        </mxCell>
        <mxCell id="Sm1Ek9W-fdh5q3tvaJtg-69" value="materie_id" style="ellipse;whiteSpace=wrap;html=1;fontSize=12;" vertex="1" parent="1">
          <mxGeometry x="73.5" y="537" width="73.5" height="38" as="geometry" />
        </mxCell>
        <mxCell id="Sm1Ek9W-fdh5q3tvaJtg-70" value="tip_examen" style="ellipse;whiteSpace=wrap;html=1;fontSize=12;" vertex="1" parent="1">
          <mxGeometry x="165.5" y="537" width="73.5" height="38" as="geometry" />
        </mxCell>
        <mxCell id="Sm1Ek9W-fdh5q3tvaJtg-71" value="data_examen" style="ellipse;whiteSpace=wrap;html=1;fontSize=12;" vertex="1" parent="1">
          <mxGeometry x="235.5" y="487" width="86" height="38" as="geometry" />
        </mxCell>
        <mxCell id="Sm1Ek9W-fdh5q3tvaJtg-72" value="" style="endArrow=none;html=1;rounded=0;fontSize=12;startSize=8;endSize=8;curved=1;exitX=1;exitY=0;exitDx=0;exitDy=0;entryX=0.5;entryY=1;entryDx=0;entryDy=0;" edge="1" parent="1" source="Sm1Ek9W-fdh5q3tvaJtg-68" target="Sm1Ek9W-fdh5q3tvaJtg-11">
          <mxGeometry width="50" height="50" relative="1" as="geometry">
            <mxPoint x="132" y="391" as="sourcePoint" />
            <mxPoint x="182" y="341" as="targetPoint" />
          </mxGeometry>
        </mxCell>
        <mxCell id="Sm1Ek9W-fdh5q3tvaJtg-73" value="" style="endArrow=none;html=1;rounded=0;fontSize=12;startSize=8;endSize=8;curved=1;exitX=0.5;exitY=0;exitDx=0;exitDy=0;entryX=0.5;entryY=1;entryDx=0;entryDy=0;" edge="1" parent="1" source="Sm1Ek9W-fdh5q3tvaJtg-69" target="Sm1Ek9W-fdh5q3tvaJtg-11">
          <mxGeometry width="50" height="50" relative="1" as="geometry">
            <mxPoint x="132" y="391" as="sourcePoint" />
            <mxPoint x="182" y="341" as="targetPoint" />
          </mxGeometry>
        </mxCell>
        <mxCell id="Sm1Ek9W-fdh5q3tvaJtg-74" value="" style="endArrow=none;html=1;rounded=0;fontSize=12;startSize=8;endSize=8;curved=1;exitX=0.5;exitY=0;exitDx=0;exitDy=0;entryX=0.5;entryY=1;entryDx=0;entryDy=0;" edge="1" parent="1" source="Sm1Ek9W-fdh5q3tvaJtg-70" target="Sm1Ek9W-fdh5q3tvaJtg-11">
          <mxGeometry width="50" height="50" relative="1" as="geometry">
            <mxPoint x="132" y="391" as="sourcePoint" />
            <mxPoint x="182" y="341" as="targetPoint" />
          </mxGeometry>
        </mxCell>
        <mxCell id="Sm1Ek9W-fdh5q3tvaJtg-75" value="" style="endArrow=none;html=1;rounded=0;fontSize=12;startSize=8;endSize=8;curved=1;exitX=0;exitY=0;exitDx=0;exitDy=0;entryX=0.5;entryY=1;entryDx=0;entryDy=0;" edge="1" parent="1" source="Sm1Ek9W-fdh5q3tvaJtg-71" target="Sm1Ek9W-fdh5q3tvaJtg-11">
          <mxGeometry width="50" height="50" relative="1" as="geometry">
            <mxPoint x="132" y="391" as="sourcePoint" />
            <mxPoint x="182" y="341" as="targetPoint" />
          </mxGeometry>
        </mxCell>
      </root>
    </mxGraphModel>
  </diagram>
</mxfile>
